G04*
G04 #@! TF.GenerationSoftware,Altium Limited,Altium Designer,20.1.14 (287)*
G04*
G04 Layer_Color=8388736*
%FSLAX25Y25*%
%MOIN*%
G70*
G04*
G04 #@! TF.SameCoordinates,ED3C4BB4-71E9-4A6E-9139-F99DAA76467E*
G04*
G04*
G04 #@! TF.FilePolarity,Negative*
G04*
G01*
G75*
G04:AMPARAMS|DCode=19|XSize=61.32mil|YSize=29.23mil|CornerRadius=14.62mil|HoleSize=0mil|Usage=FLASHONLY|Rotation=180.000|XOffset=0mil|YOffset=0mil|HoleType=Round|Shape=RoundedRectangle|*
%AMROUNDEDRECTD19*
21,1,0.06132,0.00000,0,0,180.0*
21,1,0.03209,0.02923,0,0,180.0*
1,1,0.02923,-0.01604,0.00000*
1,1,0.02923,0.01604,0.00000*
1,1,0.02923,0.01604,0.00000*
1,1,0.02923,-0.01604,0.00000*
%
%ADD19ROUNDEDRECTD19*%
%ADD20R,0.06132X0.02923*%
%ADD27C,0.07874*%
G04:AMPARAMS|DCode=28|XSize=132.02mil|YSize=65.09mil|CornerRadius=6mil|HoleSize=0mil|Usage=FLASHONLY|Rotation=270.000|XOffset=0mil|YOffset=0mil|HoleType=Round|Shape=RoundedRectangle|*
%AMROUNDEDRECTD28*
21,1,0.13202,0.05309,0,0,270.0*
21,1,0.12002,0.06509,0,0,270.0*
1,1,0.01200,-0.02655,-0.06001*
1,1,0.01200,-0.02655,0.06001*
1,1,0.01200,0.02655,0.06001*
1,1,0.01200,0.02655,-0.06001*
%
%ADD28ROUNDEDRECTD28*%
G04:AMPARAMS|DCode=29|XSize=43.43mil|YSize=65.09mil|CornerRadius=5.95mil|HoleSize=0mil|Usage=FLASHONLY|Rotation=270.000|XOffset=0mil|YOffset=0mil|HoleType=Round|Shape=RoundedRectangle|*
%AMROUNDEDRECTD29*
21,1,0.04343,0.05319,0,0,270.0*
21,1,0.03154,0.06509,0,0,270.0*
1,1,0.01190,-0.02659,-0.01577*
1,1,0.01190,-0.02659,0.01577*
1,1,0.01190,0.02659,0.01577*
1,1,0.01190,0.02659,-0.01577*
%
%ADD29ROUNDEDRECTD29*%
G04:AMPARAMS|DCode=30|XSize=27.69mil|YSize=27.69mil|CornerRadius=6.46mil|HoleSize=0mil|Usage=FLASHONLY|Rotation=270.000|XOffset=0mil|YOffset=0mil|HoleType=Round|Shape=RoundedRectangle|*
%AMROUNDEDRECTD30*
21,1,0.02769,0.01476,0,0,270.0*
21,1,0.01476,0.02769,0,0,270.0*
1,1,0.01292,-0.00738,-0.00738*
1,1,0.01292,-0.00738,0.00738*
1,1,0.01292,0.00738,0.00738*
1,1,0.01292,0.00738,-0.00738*
%
%ADD30ROUNDEDRECTD30*%
%ADD31R,0.06902X0.06902*%
%ADD32R,0.06902X0.05721*%
%ADD33R,0.03950X0.04343*%
%ADD34R,0.05721X0.06902*%
%ADD35R,0.10052X0.06115*%
%ADD36C,0.06800*%
D19*
X128882Y92000D02*
D03*
D20*
X142270D02*
D03*
D27*
X68991Y72625D02*
D03*
X195000Y147500D02*
D03*
D28*
X164894Y125500D02*
D03*
D29*
X189106Y134555D02*
D03*
Y125500D02*
D03*
Y116445D02*
D03*
D30*
X140724Y112276D02*
D03*
X137575D02*
D03*
X134425D02*
D03*
X131276D02*
D03*
X131197Y121724D02*
D03*
X134425D02*
D03*
X137575D02*
D03*
X140724D02*
D03*
D31*
X132358Y78500D02*
D03*
X139642D02*
D03*
D32*
X109000Y120571D02*
D03*
Y112500D02*
D03*
Y131000D02*
D03*
Y139071D02*
D03*
D33*
X88740Y120437D02*
D03*
X81260D02*
D03*
X85000Y112563D02*
D03*
Y130563D02*
D03*
X81260Y138437D02*
D03*
X88740D02*
D03*
D34*
X100929Y72000D02*
D03*
X109000D02*
D03*
X100929Y85500D02*
D03*
X109000D02*
D03*
X90000D02*
D03*
X81929D02*
D03*
X90000Y72000D02*
D03*
X81929D02*
D03*
D35*
X171602Y88500D02*
D03*
X182035D02*
D03*
X171783Y75000D02*
D03*
X182217D02*
D03*
D36*
X107000Y161000D02*
D03*
X117000D02*
D03*
X127000D02*
D03*
X137000D02*
D03*
X147000D02*
D03*
X157000D02*
D03*
X167000D02*
D03*
M02*
