G04*
G04 #@! TF.GenerationSoftware,Altium Limited,Altium Designer,20.1.14 (287)*
G04*
G04 Layer_Color=32896*
%FSLAX25Y25*%
%MOIN*%
G70*
G04*
G04 #@! TF.SameCoordinates,ED3C4BB4-71E9-4A6E-9139-F99DAA76467E*
G04*
G04*
G04 #@! TF.FilePolarity,Positive*
G04*
G01*
G75*
%ADD11C,0.00787*%
%ADD15C,0.01000*%
G36*
X151829Y134655D02*
X151921D01*
Y134564D01*
X152013D01*
Y134472D01*
X152105D01*
Y134380D01*
X152196D01*
Y134288D01*
X152288D01*
Y134196D01*
Y134105D01*
X152380D01*
Y134013D01*
X152472D01*
Y133921D01*
X152564D01*
Y133829D01*
X152655D01*
Y133738D01*
X152747D01*
Y133646D01*
X152839D01*
Y133554D01*
X152931D01*
Y133462D01*
Y133370D01*
X153022D01*
Y133279D01*
X153114D01*
Y133187D01*
X153206D01*
Y133095D01*
X153298D01*
Y133003D01*
X153389D01*
Y132912D01*
X153481D01*
Y132820D01*
X153573D01*
Y132728D01*
Y132636D01*
X153665D01*
Y132545D01*
X153756D01*
Y132453D01*
X153848D01*
Y132361D01*
X153940D01*
Y132269D01*
X154032D01*
Y132177D01*
X154124D01*
Y132086D01*
X154215D01*
Y131994D01*
Y131902D01*
X154307D01*
Y131810D01*
X154399D01*
Y131719D01*
X154491D01*
Y131627D01*
X154583D01*
Y131535D01*
X154674D01*
Y131443D01*
X154766D01*
Y131351D01*
X154858D01*
Y131260D01*
Y131168D01*
X154950D01*
Y131076D01*
X155041D01*
Y130984D01*
X155133D01*
Y130893D01*
X155225D01*
Y130801D01*
X155317D01*
Y130709D01*
X155408D01*
Y130617D01*
X155500D01*
Y130525D01*
Y130434D01*
X155592D01*
Y130342D01*
X155684D01*
Y130250D01*
X155775D01*
Y130158D01*
X155867D01*
Y130067D01*
X155959D01*
Y129975D01*
X156051D01*
Y129883D01*
X156143D01*
Y129791D01*
Y129700D01*
X156234D01*
Y129608D01*
X156326D01*
Y129516D01*
X156418D01*
Y129424D01*
X156510D01*
Y129332D01*
X156602D01*
Y129241D01*
X156693D01*
Y129149D01*
X156785D01*
Y129057D01*
Y128965D01*
X156877D01*
Y128874D01*
X156969D01*
Y128782D01*
X157060D01*
Y128690D01*
X157152D01*
Y128598D01*
X157244D01*
Y128506D01*
X157336D01*
Y128415D01*
X157428D01*
Y128323D01*
Y128231D01*
X157519D01*
Y128139D01*
X157611D01*
Y128048D01*
X157703D01*
Y127956D01*
X157795D01*
Y127864D01*
X157886D01*
Y127772D01*
X157978D01*
Y127681D01*
X158070D01*
Y127589D01*
Y127497D01*
X158162D01*
Y127405D01*
X158253D01*
Y127313D01*
X146965D01*
Y127222D01*
Y127130D01*
X147057D01*
Y127038D01*
Y126946D01*
X147149D01*
Y126855D01*
Y126763D01*
Y126671D01*
Y126579D01*
X147241D01*
Y126487D01*
Y126396D01*
Y126304D01*
X147332D01*
Y126212D01*
Y126120D01*
Y126029D01*
X147424D01*
Y125937D01*
Y125845D01*
Y125753D01*
X147516D01*
Y125661D01*
Y125570D01*
Y125478D01*
X147608D01*
Y125386D01*
Y125294D01*
Y125203D01*
X147699D01*
Y125111D01*
Y125019D01*
Y124927D01*
X147791D01*
Y124836D01*
Y124744D01*
Y124652D01*
Y124560D01*
X147883D01*
Y124468D01*
Y124377D01*
Y124285D01*
X147975D01*
Y124193D01*
Y124101D01*
Y124010D01*
X148067D01*
Y123918D01*
Y123826D01*
Y123734D01*
X148158D01*
Y123642D01*
Y123551D01*
Y123459D01*
X148250D01*
Y123367D01*
Y123275D01*
Y123184D01*
X148342D01*
Y123092D01*
Y123000D01*
Y122908D01*
X148434D01*
Y122817D01*
Y122725D01*
Y122633D01*
X148525D01*
Y122541D01*
Y122449D01*
Y122358D01*
X148617D01*
Y122266D01*
Y122174D01*
Y122082D01*
Y121991D01*
X148709D01*
Y121899D01*
Y121807D01*
Y121715D01*
X148801D01*
Y121623D01*
Y121532D01*
Y121440D01*
X148892D01*
Y121348D01*
Y121256D01*
Y121165D01*
X148984D01*
Y121073D01*
Y120981D01*
Y120889D01*
X149076D01*
Y120797D01*
Y120706D01*
Y120614D01*
X149168D01*
Y120522D01*
Y120430D01*
Y120339D01*
X149260D01*
Y120247D01*
Y120155D01*
Y120063D01*
X149351D01*
Y119972D01*
Y119880D01*
Y119788D01*
Y119696D01*
X149443D01*
Y119604D01*
Y119513D01*
Y119421D01*
X149535D01*
Y119329D01*
Y119237D01*
Y119146D01*
X149627D01*
Y119054D01*
Y118962D01*
Y118870D01*
X149718D01*
Y118778D01*
Y118687D01*
Y118595D01*
X149810D01*
Y118503D01*
Y118411D01*
Y118320D01*
X149902D01*
Y118228D01*
Y118136D01*
Y118044D01*
X149994D01*
Y117953D01*
Y117861D01*
Y117769D01*
X150086D01*
Y117677D01*
Y117585D01*
Y117494D01*
Y117402D01*
X150177D01*
Y117310D01*
Y117218D01*
Y117127D01*
X150269D01*
Y117035D01*
Y116943D01*
Y116851D01*
X150361D01*
Y116759D01*
Y116668D01*
Y116576D01*
X150453D01*
Y116484D01*
Y116392D01*
Y116300D01*
X150545D01*
Y116209D01*
Y116117D01*
Y116025D01*
X150636D01*
Y115933D01*
Y115842D01*
Y115750D01*
X150728D01*
Y115658D01*
Y115566D01*
X143294D01*
Y115658D01*
Y115750D01*
Y115842D01*
X143203D01*
Y115933D01*
Y116025D01*
Y116117D01*
X143111D01*
Y116209D01*
Y116300D01*
Y116392D01*
Y116484D01*
X143019D01*
Y116576D01*
Y116668D01*
Y116759D01*
X142927D01*
Y116851D01*
Y116943D01*
Y117035D01*
X142835D01*
Y117127D01*
Y117218D01*
Y117310D01*
X142744D01*
Y117402D01*
Y117494D01*
Y117585D01*
X142652D01*
Y117677D01*
Y117769D01*
Y117861D01*
X142560D01*
Y117953D01*
Y118044D01*
Y118136D01*
X142468D01*
Y118228D01*
Y118320D01*
Y118411D01*
X142377D01*
Y118503D01*
Y118595D01*
Y118687D01*
X142285D01*
Y118778D01*
Y118870D01*
Y118962D01*
Y119054D01*
X142193D01*
Y119146D01*
Y119237D01*
Y119329D01*
X142101D01*
Y119421D01*
Y119513D01*
Y119604D01*
X142009D01*
Y119696D01*
Y119788D01*
Y119880D01*
X141918D01*
Y119972D01*
Y120063D01*
Y120155D01*
X141826D01*
Y120247D01*
Y120339D01*
Y120430D01*
X141734D01*
Y120522D01*
Y120614D01*
Y120706D01*
X141642D01*
Y120797D01*
Y120889D01*
Y120981D01*
Y121073D01*
X141551D01*
Y121165D01*
Y121256D01*
Y121348D01*
X141459D01*
Y121440D01*
Y121532D01*
Y121623D01*
X141367D01*
Y121715D01*
Y121807D01*
Y121899D01*
X141275D01*
Y121991D01*
Y122082D01*
Y122174D01*
X141183D01*
Y122266D01*
Y122358D01*
Y122449D01*
X141092D01*
Y122541D01*
Y122633D01*
Y122725D01*
X141000D01*
Y122817D01*
Y122908D01*
Y123000D01*
X140908D01*
Y123092D01*
Y123184D01*
Y123275D01*
Y123367D01*
X140816D01*
Y123459D01*
Y123551D01*
Y123642D01*
X140725D01*
Y123734D01*
Y123826D01*
Y123918D01*
X140633D01*
Y124010D01*
Y124101D01*
Y124193D01*
X140541D01*
Y124285D01*
Y124377D01*
Y124468D01*
X140449D01*
Y124560D01*
Y124652D01*
Y124744D01*
X140358D01*
Y124836D01*
Y124927D01*
Y125019D01*
X140266D01*
Y125111D01*
Y125203D01*
Y125294D01*
X140174D01*
Y125386D01*
Y125478D01*
Y125570D01*
Y125661D01*
X140082D01*
Y125753D01*
Y125845D01*
Y125937D01*
X139990D01*
Y126029D01*
Y126120D01*
Y126212D01*
X139899D01*
Y126304D01*
Y126396D01*
Y126487D01*
X139807D01*
Y126579D01*
Y126671D01*
Y126763D01*
X139715D01*
Y126855D01*
Y126946D01*
Y127038D01*
X139623D01*
Y127130D01*
Y127222D01*
Y127313D01*
X134300D01*
Y127405D01*
X134209D01*
Y127497D01*
Y127589D01*
X134117D01*
Y127681D01*
X134025D01*
Y127772D01*
X133933D01*
Y127864D01*
X133842D01*
Y127956D01*
X133750D01*
Y128048D01*
X133658D01*
Y128139D01*
X133566D01*
Y128231D01*
Y128323D01*
X133475D01*
Y128415D01*
X133383D01*
Y128506D01*
X133291D01*
Y128598D01*
X133199D01*
Y128690D01*
X133107D01*
Y128782D01*
X133016D01*
Y128874D01*
X132924D01*
Y128965D01*
Y129057D01*
X132832D01*
Y129149D01*
X132740D01*
Y129241D01*
X132649D01*
Y129332D01*
X132557D01*
Y129424D01*
X132465D01*
Y129516D01*
X132373D01*
Y129608D01*
X132281D01*
Y129700D01*
Y129791D01*
X132190D01*
Y129883D01*
X132098D01*
Y129975D01*
X132006D01*
Y130067D01*
X131914D01*
Y130158D01*
X131823D01*
Y130250D01*
X131731D01*
Y130342D01*
X131639D01*
Y130434D01*
Y130525D01*
X131547D01*
Y130617D01*
X131456D01*
Y130709D01*
X131364D01*
Y130801D01*
X131272D01*
Y130893D01*
X131180D01*
Y130984D01*
X131088D01*
Y131076D01*
X130997D01*
Y131168D01*
Y131260D01*
X130905D01*
Y131351D01*
X130813D01*
Y131443D01*
X130721D01*
Y131535D01*
X130630D01*
Y131627D01*
X130538D01*
Y131719D01*
X130446D01*
Y131810D01*
X130354D01*
Y131902D01*
Y131994D01*
X130262D01*
Y132086D01*
X130171D01*
Y132177D01*
X130079D01*
Y132269D01*
X129987D01*
Y132361D01*
X129895D01*
Y132453D01*
X129804D01*
Y132545D01*
X129712D01*
Y132636D01*
Y132728D01*
X129620D01*
Y132820D01*
X129528D01*
Y132912D01*
X129437D01*
Y133003D01*
X129345D01*
Y133095D01*
X129253D01*
Y133187D01*
X129161D01*
Y133279D01*
X129069D01*
Y133370D01*
Y133462D01*
X128978D01*
Y133554D01*
X128886D01*
Y133646D01*
X128794D01*
Y133738D01*
X128702D01*
Y133829D01*
X128611D01*
Y133921D01*
X128519D01*
Y134013D01*
X128427D01*
Y134105D01*
Y134196D01*
X128335D01*
Y134288D01*
X128244D01*
Y134380D01*
X128152D01*
Y134472D01*
X128060D01*
Y134564D01*
X127968D01*
Y134655D01*
X127876D01*
Y134747D01*
X151829D01*
Y134655D01*
D02*
G37*
G36*
X127693D02*
Y134564D01*
X127785D01*
Y134472D01*
Y134380D01*
Y134288D01*
X127876D01*
Y134196D01*
Y134105D01*
Y134013D01*
Y133921D01*
X127968D01*
Y133829D01*
Y133738D01*
Y133646D01*
X128060D01*
Y133554D01*
Y133462D01*
Y133370D01*
X128152D01*
Y133279D01*
Y133187D01*
Y133095D01*
X128244D01*
Y133003D01*
Y132912D01*
Y132820D01*
X128335D01*
Y132728D01*
Y132636D01*
Y132545D01*
X128427D01*
Y132453D01*
Y132361D01*
Y132269D01*
X128519D01*
Y132177D01*
Y132086D01*
Y131994D01*
Y131902D01*
X128611D01*
Y131810D01*
Y131719D01*
Y131627D01*
X128702D01*
Y131535D01*
Y131443D01*
Y131351D01*
X128794D01*
Y131260D01*
Y131168D01*
Y131076D01*
X128886D01*
Y130984D01*
Y130893D01*
Y130801D01*
X128978D01*
Y130709D01*
Y130617D01*
Y130525D01*
X129069D01*
Y130434D01*
Y130342D01*
Y130250D01*
X129161D01*
Y130158D01*
Y130067D01*
Y129975D01*
X129253D01*
Y129883D01*
Y129791D01*
Y129700D01*
X129345D01*
Y129608D01*
Y129516D01*
Y129424D01*
Y129332D01*
X129437D01*
Y129241D01*
Y129149D01*
Y129057D01*
X129528D01*
Y128965D01*
Y128874D01*
Y128782D01*
X129620D01*
Y128690D01*
Y128598D01*
Y128506D01*
X129712D01*
Y128415D01*
Y128323D01*
Y128231D01*
X129804D01*
Y128139D01*
Y128048D01*
Y127956D01*
X129895D01*
Y127864D01*
Y127772D01*
Y127681D01*
X129987D01*
Y127589D01*
Y127497D01*
Y127405D01*
X130079D01*
Y127313D01*
Y127222D01*
Y127130D01*
Y127038D01*
X130171D01*
Y126946D01*
Y126855D01*
Y126763D01*
X130262D01*
Y126671D01*
Y126579D01*
Y126487D01*
X130354D01*
Y126396D01*
Y126304D01*
Y126212D01*
X130446D01*
Y126120D01*
Y126029D01*
Y125937D01*
X130538D01*
Y125845D01*
Y125753D01*
Y125661D01*
X130630D01*
Y125570D01*
Y125478D01*
Y125386D01*
X130721D01*
Y125294D01*
Y125203D01*
Y125111D01*
X130813D01*
Y125019D01*
Y124927D01*
Y124836D01*
Y124744D01*
X130905D01*
Y124652D01*
Y124560D01*
Y124468D01*
X130997D01*
Y124377D01*
Y124285D01*
Y124193D01*
X131088D01*
Y124101D01*
Y124010D01*
Y123918D01*
X131180D01*
Y123826D01*
Y123734D01*
Y123642D01*
X131272D01*
Y123551D01*
Y123459D01*
Y123367D01*
X131364D01*
Y123275D01*
Y123184D01*
Y123092D01*
X131456D01*
Y123000D01*
X136687D01*
Y122908D01*
X136778D01*
Y122817D01*
X136870D01*
Y122725D01*
X136962D01*
Y122633D01*
Y122541D01*
X137054D01*
Y122449D01*
X137145D01*
Y122358D01*
X137237D01*
Y122266D01*
X137329D01*
Y122174D01*
X137421D01*
Y122082D01*
X137513D01*
Y121991D01*
X137604D01*
Y121899D01*
Y121807D01*
X137696D01*
Y121715D01*
X137788D01*
Y121623D01*
X137880D01*
Y121532D01*
X137971D01*
Y121440D01*
X138063D01*
Y121348D01*
X138155D01*
Y121256D01*
Y121165D01*
X138247D01*
Y121073D01*
X138339D01*
Y120981D01*
X138430D01*
Y120889D01*
X138522D01*
Y120797D01*
X138614D01*
Y120706D01*
X138706D01*
Y120614D01*
X138797D01*
Y120522D01*
Y120430D01*
X138889D01*
Y120339D01*
X138981D01*
Y120247D01*
X139073D01*
Y120155D01*
X139164D01*
Y120063D01*
X139256D01*
Y119972D01*
X139348D01*
Y119880D01*
X139440D01*
Y119788D01*
Y119696D01*
X139532D01*
Y119604D01*
X139623D01*
Y119513D01*
X139715D01*
Y119421D01*
X139807D01*
Y119329D01*
X139899D01*
Y119237D01*
X139990D01*
Y119146D01*
Y119054D01*
X140082D01*
Y118962D01*
X140174D01*
Y118870D01*
X140266D01*
Y118778D01*
X140358D01*
Y118687D01*
X140449D01*
Y118595D01*
X140541D01*
Y118503D01*
X140633D01*
Y118411D01*
Y118320D01*
X140725D01*
Y118228D01*
X140816D01*
Y118136D01*
X140908D01*
Y118044D01*
X141000D01*
Y117953D01*
X141092D01*
Y117861D01*
X141183D01*
Y117769D01*
X141275D01*
Y117677D01*
Y117585D01*
X141367D01*
Y117494D01*
X141459D01*
Y117402D01*
X141551D01*
Y117310D01*
X141642D01*
Y117218D01*
X141734D01*
Y117127D01*
X141826D01*
Y117035D01*
X141918D01*
Y116943D01*
Y116851D01*
X142009D01*
Y116759D01*
X142101D01*
Y116668D01*
X142193D01*
Y116576D01*
X142285D01*
Y116484D01*
X142377D01*
Y116392D01*
X142468D01*
Y116300D01*
Y116209D01*
X142560D01*
Y116117D01*
X142652D01*
Y116025D01*
X142744D01*
Y115933D01*
X142835D01*
Y115842D01*
X142927D01*
Y115750D01*
X143019D01*
Y115658D01*
X143111D01*
Y115566D01*
X119250D01*
Y115658D01*
X119158D01*
Y115750D01*
X119066D01*
Y115842D01*
X118974D01*
Y115933D01*
X118883D01*
Y116025D01*
X118791D01*
Y116117D01*
X118699D01*
Y116209D01*
X118607D01*
Y116300D01*
X118516D01*
Y116392D01*
Y116484D01*
X118424D01*
Y116576D01*
X118332D01*
Y116668D01*
X118240D01*
Y116759D01*
X118148D01*
Y116851D01*
X118057D01*
Y116943D01*
X117965D01*
Y117035D01*
X117873D01*
Y117127D01*
Y117218D01*
X117781D01*
Y117310D01*
X117690D01*
Y117402D01*
X117598D01*
Y117494D01*
X117506D01*
Y117585D01*
X117414D01*
Y117677D01*
X117322D01*
Y117769D01*
X117231D01*
Y117861D01*
Y117953D01*
X117139D01*
Y118044D01*
X117047D01*
Y118136D01*
X116955D01*
Y118228D01*
X116864D01*
Y118320D01*
X116772D01*
Y118411D01*
X116680D01*
Y118503D01*
Y118595D01*
X116588D01*
Y118687D01*
X116497D01*
Y118778D01*
X116405D01*
Y118870D01*
X116313D01*
Y118962D01*
X116221D01*
Y119054D01*
X116129D01*
Y119146D01*
X116038D01*
Y119237D01*
Y119329D01*
X115946D01*
Y119421D01*
X115854D01*
Y119513D01*
X115762D01*
Y119604D01*
X115671D01*
Y119696D01*
X115579D01*
Y119788D01*
X115487D01*
Y119880D01*
X115395D01*
Y119972D01*
Y120063D01*
X115303D01*
Y120155D01*
X115212D01*
Y120247D01*
X115120D01*
Y120339D01*
X115028D01*
Y120430D01*
X114936D01*
Y120522D01*
X114845D01*
Y120614D01*
X114753D01*
Y120706D01*
Y120797D01*
X114661D01*
Y120889D01*
X114569D01*
Y120981D01*
X114477D01*
Y121073D01*
X114386D01*
Y121165D01*
X114294D01*
Y121256D01*
X114202D01*
Y121348D01*
Y121440D01*
X114110D01*
Y121532D01*
X114019D01*
Y121623D01*
X113927D01*
Y121715D01*
X113835D01*
Y121807D01*
X113743D01*
Y121899D01*
X113652D01*
Y121991D01*
X113560D01*
Y122082D01*
Y122174D01*
X113468D01*
Y122266D01*
X113376D01*
Y122358D01*
X113284D01*
Y122449D01*
X113193D01*
Y122541D01*
X113101D01*
Y122633D01*
X113009D01*
Y122725D01*
X112917D01*
Y122817D01*
Y122908D01*
X112826D01*
Y123000D01*
X124022D01*
Y123092D01*
Y123184D01*
X123930D01*
Y123275D01*
Y123367D01*
Y123459D01*
X123838D01*
Y123551D01*
Y123642D01*
Y123734D01*
Y123826D01*
X123747D01*
Y123918D01*
Y124010D01*
Y124101D01*
X123655D01*
Y124193D01*
Y124285D01*
Y124377D01*
X123563D01*
Y124468D01*
Y124560D01*
Y124652D01*
X123471D01*
Y124744D01*
Y124836D01*
Y124927D01*
X123380D01*
Y125019D01*
Y125111D01*
Y125203D01*
X123288D01*
Y125294D01*
Y125386D01*
Y125478D01*
X123196D01*
Y125570D01*
Y125661D01*
Y125753D01*
Y125845D01*
X123104D01*
Y125937D01*
Y126029D01*
Y126120D01*
X123012D01*
Y126212D01*
Y126304D01*
Y126396D01*
X122921D01*
Y126487D01*
Y126579D01*
Y126671D01*
X122829D01*
Y126763D01*
Y126855D01*
Y126946D01*
X122737D01*
Y127038D01*
Y127130D01*
Y127222D01*
X122645D01*
Y127313D01*
Y127405D01*
Y127497D01*
X122554D01*
Y127589D01*
Y127681D01*
Y127772D01*
X122462D01*
Y127864D01*
Y127956D01*
Y128048D01*
X122370D01*
Y128139D01*
Y128231D01*
Y128323D01*
Y128415D01*
X122278D01*
Y128506D01*
Y128598D01*
Y128690D01*
X122186D01*
Y128782D01*
Y128874D01*
Y128965D01*
X122095D01*
Y129057D01*
Y129149D01*
Y129241D01*
X122003D01*
Y129332D01*
Y129424D01*
Y129516D01*
X121911D01*
Y129608D01*
Y129700D01*
Y129791D01*
X121819D01*
Y129883D01*
Y129975D01*
Y130067D01*
X121728D01*
Y130158D01*
Y130250D01*
Y130342D01*
Y130434D01*
X121636D01*
Y130525D01*
Y130617D01*
Y130709D01*
X121544D01*
Y130801D01*
Y130893D01*
Y130984D01*
X121452D01*
Y131076D01*
Y131168D01*
Y131260D01*
X121361D01*
Y131351D01*
Y131443D01*
Y131535D01*
X121269D01*
Y131627D01*
Y131719D01*
Y131810D01*
X121177D01*
Y131902D01*
Y131994D01*
Y132086D01*
X121085D01*
Y132177D01*
Y132269D01*
Y132361D01*
X120993D01*
Y132453D01*
Y132545D01*
Y132636D01*
X120902D01*
Y132728D01*
Y132820D01*
Y132912D01*
Y133003D01*
X120810D01*
Y133095D01*
Y133187D01*
Y133279D01*
X120718D01*
Y133370D01*
Y133462D01*
Y133554D01*
X120626D01*
Y133646D01*
Y133738D01*
Y133829D01*
X120535D01*
Y133921D01*
Y134013D01*
Y134105D01*
X120443D01*
Y134196D01*
Y134288D01*
Y134380D01*
X120351D01*
Y134472D01*
Y134564D01*
Y134655D01*
X120259D01*
Y134747D01*
X127693D01*
Y134655D01*
D02*
G37*
G36*
X116129Y110060D02*
X116497D01*
Y109968D01*
X116772D01*
Y109876D01*
X116955D01*
Y109785D01*
X117139D01*
Y109693D01*
X117231D01*
Y109601D01*
X117414D01*
Y109509D01*
X117506D01*
Y109417D01*
X117598D01*
Y109326D01*
X117690D01*
Y109234D01*
X117781D01*
Y109142D01*
X117873D01*
Y109050D01*
Y108959D01*
X117965D01*
Y108867D01*
X118057D01*
Y108775D01*
Y108683D01*
X118148D01*
Y108592D01*
Y108500D01*
X118240D01*
Y108408D01*
Y108316D01*
Y108224D01*
X118332D01*
Y108133D01*
Y108041D01*
Y107949D01*
X118424D01*
Y107857D01*
Y107766D01*
Y107674D01*
Y107582D01*
Y107490D01*
Y107398D01*
Y107307D01*
Y107215D01*
Y107123D01*
Y107031D01*
Y106940D01*
Y106848D01*
Y106756D01*
X115854D01*
Y106848D01*
Y106940D01*
Y107031D01*
Y107123D01*
Y107215D01*
Y107307D01*
Y107398D01*
X115762D01*
Y107490D01*
X111449D01*
Y107398D01*
X111357D01*
Y107307D01*
Y107215D01*
Y107123D01*
Y107031D01*
Y106940D01*
Y106848D01*
Y106756D01*
Y106664D01*
Y106572D01*
Y106481D01*
Y106389D01*
Y106297D01*
Y106205D01*
Y106114D01*
Y106022D01*
Y105930D01*
Y105838D01*
X111449D01*
Y105747D01*
X113193D01*
Y105655D01*
X115028D01*
Y105563D01*
X116772D01*
Y105471D01*
X117231D01*
Y105379D01*
X117414D01*
Y105288D01*
X117598D01*
Y105196D01*
X117690D01*
Y105104D01*
X117781D01*
Y105012D01*
X117873D01*
Y104921D01*
X117965D01*
Y104829D01*
X118057D01*
Y104737D01*
X118148D01*
Y104645D01*
X118240D01*
Y104553D01*
X118332D01*
Y104462D01*
Y104370D01*
X118424D01*
Y104278D01*
Y104186D01*
X118516D01*
Y104095D01*
Y104003D01*
X118607D01*
Y103911D01*
Y103819D01*
X118699D01*
Y103728D01*
Y103636D01*
Y103544D01*
Y103452D01*
X118791D01*
Y103360D01*
Y103269D01*
Y103177D01*
Y103085D01*
Y102993D01*
X118883D01*
Y102902D01*
Y102810D01*
Y102718D01*
Y102626D01*
Y102534D01*
Y102443D01*
Y102351D01*
Y102259D01*
Y102167D01*
Y102076D01*
Y101984D01*
Y101892D01*
Y101800D01*
Y101708D01*
Y101617D01*
Y101525D01*
Y101433D01*
Y101341D01*
Y101250D01*
Y101158D01*
Y101066D01*
Y100974D01*
Y100883D01*
Y100791D01*
Y100699D01*
Y100607D01*
Y100515D01*
Y100424D01*
Y100332D01*
Y100240D01*
Y100148D01*
Y100057D01*
Y99965D01*
Y99873D01*
X118791D01*
Y99781D01*
Y99690D01*
Y99598D01*
X118699D01*
Y99506D01*
Y99414D01*
X118607D01*
Y99322D01*
Y99231D01*
X118516D01*
Y99139D01*
Y99047D01*
X118424D01*
Y98955D01*
X118332D01*
Y98864D01*
X118240D01*
Y98772D01*
X118057D01*
Y98680D01*
X117965D01*
Y98588D01*
X117781D01*
Y98497D01*
X117506D01*
Y98405D01*
X116221D01*
Y98497D01*
X115671D01*
Y98588D01*
X115212D01*
Y98680D01*
X114753D01*
Y98772D01*
X114386D01*
Y98864D01*
X113927D01*
Y98955D01*
X113560D01*
Y99047D01*
X113193D01*
Y99139D01*
X112826D01*
Y99231D01*
X112367D01*
Y99322D01*
X111999D01*
Y99414D01*
X111724D01*
Y99506D01*
X111265D01*
Y99414D01*
X111174D01*
Y99322D01*
X111082D01*
Y99231D01*
X110990D01*
Y99139D01*
X110898D01*
Y99047D01*
X110807D01*
Y98955D01*
X110715D01*
Y98864D01*
X110623D01*
Y98772D01*
X110531D01*
Y98680D01*
X110439D01*
Y98588D01*
X108788D01*
Y98680D01*
Y98772D01*
Y98864D01*
Y98955D01*
Y99047D01*
Y99139D01*
Y99231D01*
Y99322D01*
Y99414D01*
Y99506D01*
Y99598D01*
Y99690D01*
Y99781D01*
Y99873D01*
Y99965D01*
Y100057D01*
Y100148D01*
Y100240D01*
Y100332D01*
Y100424D01*
Y100515D01*
Y100607D01*
Y100699D01*
Y100791D01*
Y100883D01*
Y100974D01*
Y101066D01*
Y101158D01*
Y101250D01*
Y101341D01*
Y101433D01*
Y101525D01*
Y101617D01*
Y101708D01*
Y101800D01*
Y101892D01*
Y101984D01*
Y102076D01*
Y102167D01*
Y102259D01*
Y102351D01*
Y102443D01*
Y102534D01*
Y102626D01*
Y102718D01*
Y102810D01*
Y102902D01*
Y102993D01*
Y103085D01*
Y103177D01*
Y103269D01*
Y103360D01*
Y103452D01*
Y103544D01*
Y103636D01*
Y103728D01*
Y103819D01*
Y103911D01*
Y104003D01*
Y104095D01*
Y104186D01*
Y104278D01*
Y104370D01*
Y104462D01*
Y104553D01*
Y104645D01*
Y104737D01*
Y104829D01*
Y104921D01*
Y105012D01*
Y105104D01*
Y105196D01*
Y105288D01*
Y105379D01*
Y105471D01*
Y105563D01*
Y105655D01*
Y105747D01*
Y105838D01*
Y105930D01*
Y106022D01*
Y106114D01*
Y106205D01*
Y106297D01*
Y106389D01*
Y106481D01*
Y106572D01*
Y106664D01*
Y106756D01*
Y106848D01*
Y106940D01*
Y107031D01*
Y107123D01*
Y107215D01*
Y107307D01*
Y107398D01*
Y107490D01*
Y107582D01*
Y107674D01*
Y107766D01*
Y107857D01*
Y107949D01*
X108879D01*
Y108041D01*
Y108133D01*
Y108224D01*
Y108316D01*
X108971D01*
Y108408D01*
Y108500D01*
Y108592D01*
X109063D01*
Y108683D01*
Y108775D01*
X109155D01*
Y108867D01*
X109246D01*
Y108959D01*
Y109050D01*
X109338D01*
Y109142D01*
X109430D01*
Y109234D01*
X109522D01*
Y109326D01*
X109613D01*
Y109417D01*
X109705D01*
Y109509D01*
X109797D01*
Y109601D01*
X109889D01*
Y109693D01*
X110072D01*
Y109785D01*
X110256D01*
Y109876D01*
X110439D01*
Y109968D01*
X110623D01*
Y110060D01*
X111082D01*
Y110152D01*
X116129D01*
Y110060D01*
D02*
G37*
G36*
X148709D02*
X149168D01*
Y109968D01*
X149351D01*
Y109876D01*
X149535D01*
Y109785D01*
X149718D01*
Y109693D01*
X149902D01*
Y109601D01*
X149994D01*
Y109509D01*
X150086D01*
Y109417D01*
X150177D01*
Y109326D01*
X150269D01*
Y109234D01*
X150361D01*
Y109142D01*
X150453D01*
Y109050D01*
X150545D01*
Y108959D01*
Y108867D01*
X150636D01*
Y108775D01*
Y108683D01*
X150728D01*
Y108592D01*
Y108500D01*
X150820D01*
Y108408D01*
Y108316D01*
Y108224D01*
X150912D01*
Y108133D01*
Y108041D01*
Y107949D01*
Y107857D01*
Y107766D01*
X151003D01*
Y107674D01*
Y107582D01*
Y107490D01*
Y107398D01*
Y107307D01*
Y107215D01*
Y107123D01*
Y107031D01*
Y106940D01*
Y106848D01*
Y106756D01*
Y106664D01*
Y106572D01*
Y106481D01*
Y106389D01*
Y106297D01*
Y106205D01*
Y106114D01*
Y106022D01*
Y105930D01*
Y105838D01*
Y105747D01*
Y105655D01*
Y105563D01*
Y105471D01*
Y105379D01*
Y105288D01*
Y105196D01*
Y105104D01*
Y105012D01*
Y104921D01*
Y104829D01*
Y104737D01*
Y104645D01*
Y104553D01*
Y104462D01*
Y104370D01*
Y104278D01*
Y104186D01*
Y104095D01*
Y104003D01*
Y103911D01*
Y103819D01*
Y103728D01*
Y103636D01*
Y103544D01*
Y103452D01*
Y103360D01*
Y103269D01*
Y103177D01*
Y103085D01*
Y102993D01*
Y102902D01*
Y102810D01*
Y102718D01*
Y102626D01*
Y102534D01*
Y102443D01*
Y102351D01*
Y102259D01*
Y102167D01*
Y102076D01*
Y101984D01*
Y101892D01*
Y101800D01*
Y101708D01*
Y101617D01*
Y101525D01*
Y101433D01*
Y101341D01*
Y101250D01*
Y101158D01*
Y101066D01*
Y100974D01*
Y100883D01*
Y100791D01*
Y100699D01*
X150912D01*
Y100607D01*
Y100515D01*
Y100424D01*
Y100332D01*
Y100240D01*
X150820D01*
Y100148D01*
Y100057D01*
Y99965D01*
X150728D01*
Y99873D01*
Y99781D01*
X150636D01*
Y99690D01*
Y99598D01*
X150545D01*
Y99506D01*
X150453D01*
Y99414D01*
Y99322D01*
X150361D01*
Y99231D01*
X150269D01*
Y99139D01*
X150177D01*
Y99047D01*
X150086D01*
Y98955D01*
X149902D01*
Y98864D01*
X149810D01*
Y98772D01*
X149627D01*
Y98680D01*
X149535D01*
Y98588D01*
X149260D01*
Y98497D01*
X148984D01*
Y98405D01*
X142835D01*
Y98497D01*
X142560D01*
Y98588D01*
X142377D01*
Y98680D01*
X142193D01*
Y98772D01*
X142009D01*
Y98864D01*
X141918D01*
Y98955D01*
X141826D01*
Y99047D01*
X141734D01*
Y99139D01*
X141642D01*
Y99231D01*
X141551D01*
Y99322D01*
X141459D01*
Y99414D01*
X141367D01*
Y99506D01*
X141275D01*
Y99598D01*
Y99690D01*
X141183D01*
Y99781D01*
Y99873D01*
X141092D01*
Y99965D01*
Y100057D01*
X141000D01*
Y100148D01*
Y100240D01*
Y100332D01*
Y100424D01*
X140908D01*
Y100515D01*
Y100607D01*
Y100699D01*
Y100791D01*
Y100883D01*
Y100974D01*
Y101066D01*
Y101158D01*
Y101250D01*
Y101341D01*
Y101433D01*
Y101525D01*
Y101617D01*
Y101708D01*
Y101800D01*
Y101892D01*
Y101984D01*
Y102076D01*
Y102167D01*
Y102259D01*
Y102351D01*
Y102443D01*
X143478D01*
Y102351D01*
Y102259D01*
Y102167D01*
Y102076D01*
Y101984D01*
Y101892D01*
Y101800D01*
Y101708D01*
Y101617D01*
Y101525D01*
Y101433D01*
Y101341D01*
Y101250D01*
Y101158D01*
Y101066D01*
Y100974D01*
X143661D01*
Y100883D01*
X148250D01*
Y100974D01*
X148342D01*
Y101066D01*
X148434D01*
Y101158D01*
Y101250D01*
Y101341D01*
Y101433D01*
Y101525D01*
Y101617D01*
Y101708D01*
Y101800D01*
Y101892D01*
Y101984D01*
Y102076D01*
Y102167D01*
Y102259D01*
Y102351D01*
Y102443D01*
Y102534D01*
Y102626D01*
Y102718D01*
Y102810D01*
Y102902D01*
Y102993D01*
Y103085D01*
Y103177D01*
Y103269D01*
Y103360D01*
Y103452D01*
X140908D01*
Y103544D01*
Y103636D01*
Y103728D01*
Y103819D01*
Y103911D01*
Y104003D01*
Y104095D01*
Y104186D01*
Y104278D01*
Y104370D01*
Y104462D01*
Y104553D01*
Y104645D01*
Y104737D01*
Y104829D01*
Y104921D01*
Y105012D01*
Y105104D01*
Y105196D01*
Y105288D01*
Y105379D01*
Y105471D01*
Y105563D01*
Y105655D01*
Y105747D01*
Y105838D01*
Y105930D01*
Y106022D01*
Y106114D01*
Y106205D01*
Y106297D01*
Y106389D01*
Y106481D01*
Y106572D01*
Y106664D01*
Y106756D01*
Y106848D01*
Y106940D01*
Y107031D01*
Y107123D01*
Y107215D01*
Y107307D01*
Y107398D01*
Y107490D01*
Y107582D01*
Y107674D01*
Y107766D01*
Y107857D01*
Y107949D01*
Y108041D01*
Y108133D01*
X141000D01*
Y108224D01*
Y108316D01*
Y108408D01*
X141092D01*
Y108500D01*
Y108592D01*
X141183D01*
Y108683D01*
Y108775D01*
X141275D01*
Y108867D01*
Y108959D01*
X141367D01*
Y109050D01*
X141459D01*
Y109142D01*
Y109234D01*
X141551D01*
Y109326D01*
X141642D01*
Y109417D01*
X141734D01*
Y109509D01*
X141826D01*
Y109601D01*
X142009D01*
Y109693D01*
X142101D01*
Y109785D01*
X142285D01*
Y109876D01*
X142468D01*
Y109968D01*
X142744D01*
Y110060D01*
X143111D01*
Y110152D01*
X148709D01*
Y110060D01*
D02*
G37*
G36*
X161649Y114740D02*
Y114649D01*
X161741D01*
Y114557D01*
Y114465D01*
Y114373D01*
X161833D01*
Y114281D01*
Y114190D01*
Y114098D01*
X161924D01*
Y114006D01*
Y113914D01*
Y113823D01*
X162016D01*
Y113731D01*
Y113639D01*
Y113547D01*
X162108D01*
Y113455D01*
Y113364D01*
Y113272D01*
X162200D01*
Y113180D01*
Y113089D01*
Y112997D01*
X162292D01*
Y112905D01*
Y112813D01*
Y112721D01*
X162383D01*
Y112630D01*
Y112538D01*
Y112446D01*
X162475D01*
Y112354D01*
Y112262D01*
X157978D01*
Y112171D01*
Y112079D01*
Y111987D01*
Y111895D01*
Y111804D01*
Y111712D01*
Y111620D01*
Y111528D01*
Y111436D01*
Y111345D01*
Y111253D01*
Y111161D01*
Y111069D01*
Y110978D01*
Y110886D01*
Y110794D01*
Y110702D01*
Y110611D01*
Y110519D01*
Y110427D01*
Y110335D01*
Y110243D01*
Y110152D01*
Y110060D01*
Y109968D01*
Y109876D01*
Y109785D01*
Y109693D01*
Y109601D01*
Y109509D01*
Y109417D01*
Y109326D01*
Y109234D01*
Y109142D01*
Y109050D01*
Y108959D01*
Y108867D01*
Y108775D01*
Y108683D01*
Y108592D01*
Y108500D01*
Y108408D01*
Y108316D01*
Y108224D01*
Y108133D01*
Y108041D01*
Y107949D01*
Y107857D01*
Y107766D01*
Y107674D01*
Y107582D01*
Y107490D01*
Y107398D01*
Y107307D01*
Y107215D01*
Y107123D01*
Y107031D01*
Y106940D01*
Y106848D01*
Y106756D01*
Y106664D01*
Y106572D01*
Y106481D01*
Y106389D01*
Y106297D01*
Y106205D01*
Y106114D01*
Y106022D01*
Y105930D01*
Y105838D01*
Y105747D01*
Y105655D01*
Y105563D01*
Y105471D01*
Y105379D01*
Y105288D01*
Y105196D01*
Y105104D01*
Y105012D01*
Y104921D01*
Y104829D01*
Y104737D01*
Y104645D01*
Y104553D01*
Y104462D01*
Y104370D01*
Y104278D01*
Y104186D01*
Y104095D01*
Y104003D01*
Y103911D01*
Y103819D01*
Y103728D01*
Y103636D01*
Y103544D01*
Y103452D01*
Y103360D01*
Y103269D01*
Y103177D01*
Y103085D01*
Y102993D01*
Y102902D01*
Y102810D01*
Y102718D01*
Y102626D01*
Y102534D01*
Y102443D01*
Y102351D01*
Y102259D01*
Y102167D01*
Y102076D01*
Y101984D01*
Y101892D01*
Y101800D01*
Y101708D01*
Y101617D01*
Y101525D01*
Y101433D01*
Y101341D01*
Y101250D01*
Y101158D01*
Y101066D01*
Y100974D01*
Y100883D01*
Y100791D01*
Y100699D01*
Y100607D01*
Y100515D01*
Y100424D01*
Y100332D01*
Y100240D01*
Y100148D01*
Y100057D01*
Y99965D01*
Y99873D01*
Y99781D01*
Y99690D01*
Y99598D01*
Y99506D01*
Y99414D01*
Y99322D01*
Y99231D01*
Y99139D01*
Y99047D01*
Y98955D01*
Y98864D01*
Y98772D01*
Y98680D01*
Y98588D01*
X155408D01*
Y98680D01*
Y98772D01*
Y98864D01*
Y98955D01*
Y99047D01*
Y99139D01*
Y99231D01*
Y99322D01*
Y99414D01*
Y99506D01*
Y99598D01*
Y99690D01*
Y99781D01*
Y99873D01*
Y99965D01*
Y100057D01*
Y100148D01*
Y100240D01*
Y100332D01*
Y100424D01*
Y100515D01*
Y100607D01*
Y100699D01*
Y100791D01*
Y100883D01*
Y100974D01*
Y101066D01*
Y101158D01*
Y101250D01*
Y101341D01*
Y101433D01*
Y101525D01*
Y101617D01*
Y101708D01*
Y101800D01*
Y101892D01*
Y101984D01*
Y102076D01*
Y102167D01*
Y102259D01*
Y102351D01*
Y102443D01*
Y102534D01*
Y102626D01*
Y102718D01*
Y102810D01*
Y102902D01*
Y102993D01*
Y103085D01*
Y103177D01*
Y103269D01*
Y103360D01*
Y103452D01*
Y103544D01*
Y103636D01*
Y103728D01*
Y103819D01*
Y103911D01*
Y104003D01*
Y104095D01*
Y104186D01*
Y104278D01*
Y104370D01*
Y104462D01*
Y104553D01*
Y104645D01*
Y104737D01*
Y104829D01*
Y104921D01*
Y105012D01*
Y105104D01*
Y105196D01*
Y105288D01*
Y105379D01*
Y105471D01*
Y105563D01*
Y105655D01*
Y105747D01*
Y105838D01*
Y105930D01*
Y106022D01*
Y106114D01*
Y106205D01*
Y106297D01*
Y106389D01*
Y106481D01*
Y106572D01*
Y106664D01*
Y106756D01*
Y106848D01*
Y106940D01*
Y107031D01*
Y107123D01*
Y107215D01*
Y107307D01*
Y107398D01*
Y107490D01*
Y107582D01*
Y107674D01*
Y107766D01*
Y107857D01*
Y107949D01*
Y108041D01*
Y108133D01*
Y108224D01*
Y108316D01*
Y108408D01*
Y108500D01*
Y108592D01*
Y108683D01*
Y108775D01*
Y108867D01*
Y108959D01*
Y109050D01*
Y109142D01*
Y109234D01*
Y109326D01*
Y109417D01*
Y109509D01*
Y109601D01*
Y109693D01*
Y109785D01*
Y109876D01*
Y109968D01*
Y110060D01*
Y110152D01*
Y110243D01*
Y110335D01*
Y110427D01*
Y110519D01*
Y110611D01*
Y110702D01*
Y110794D01*
Y110886D01*
Y110978D01*
Y111069D01*
Y111161D01*
Y111253D01*
Y111345D01*
Y111436D01*
Y111528D01*
Y111620D01*
Y111712D01*
Y111804D01*
Y111895D01*
Y111987D01*
Y112079D01*
Y112171D01*
Y112262D01*
X150820D01*
Y112354D01*
Y112446D01*
Y112538D01*
X150728D01*
Y112630D01*
Y112721D01*
Y112813D01*
X150636D01*
Y112905D01*
Y112997D01*
Y113089D01*
X150545D01*
Y113180D01*
Y113272D01*
Y113364D01*
X150453D01*
Y113455D01*
Y113547D01*
Y113639D01*
X150361D01*
Y113731D01*
Y113823D01*
Y113914D01*
X150269D01*
Y114006D01*
Y114098D01*
Y114190D01*
X150177D01*
Y114281D01*
Y114373D01*
Y114465D01*
X150086D01*
Y114557D01*
Y114649D01*
Y114740D01*
X149994D01*
Y114832D01*
X161649D01*
Y114740D01*
D02*
G37*
G36*
X136320Y110060D02*
X136778D01*
Y109968D01*
X136962D01*
Y109876D01*
X137145D01*
Y109785D01*
X137329D01*
Y109693D01*
X137513D01*
Y109601D01*
X137604D01*
Y109509D01*
X137696D01*
Y109417D01*
X137788D01*
Y109326D01*
X137880D01*
Y109234D01*
X137971D01*
Y109142D01*
X138063D01*
Y109050D01*
X138155D01*
Y108959D01*
Y108867D01*
X138247D01*
Y108775D01*
Y108683D01*
X138339D01*
Y108592D01*
Y108500D01*
X138430D01*
Y108408D01*
Y108316D01*
Y108224D01*
X138522D01*
Y108133D01*
Y108041D01*
Y107949D01*
Y107857D01*
Y107766D01*
X138614D01*
Y107674D01*
Y107582D01*
Y107490D01*
Y107398D01*
Y107307D01*
Y107215D01*
Y107123D01*
Y107031D01*
Y106940D01*
Y106848D01*
Y106756D01*
Y106664D01*
Y106572D01*
Y106481D01*
Y106389D01*
X138522D01*
Y106297D01*
Y106205D01*
Y106114D01*
Y106022D01*
Y105930D01*
Y105838D01*
X138430D01*
Y105747D01*
Y105655D01*
Y105563D01*
X138339D01*
Y105471D01*
Y105379D01*
Y105288D01*
X138247D01*
Y105196D01*
Y105104D01*
X138155D01*
Y105012D01*
X138063D01*
Y104921D01*
X137971D01*
Y104829D01*
Y104737D01*
X137880D01*
Y104645D01*
X137788D01*
Y104553D01*
X137696D01*
Y104462D01*
X137604D01*
Y104370D01*
X137421D01*
Y104278D01*
X137329D01*
Y104186D01*
X137145D01*
Y104095D01*
X136962D01*
Y104003D01*
X136778D01*
Y103911D01*
X136595D01*
Y103819D01*
X136411D01*
Y103728D01*
X136136D01*
Y103636D01*
X135861D01*
Y103544D01*
X135494D01*
Y103452D01*
X135126D01*
Y103360D01*
X134668D01*
Y103269D01*
X134209D01*
Y103177D01*
X133658D01*
Y103085D01*
X133199D01*
Y102993D01*
X132740D01*
Y102902D01*
X132373D01*
Y102810D01*
X132190D01*
Y102718D01*
X131914D01*
Y102626D01*
X131731D01*
Y102534D01*
X131547D01*
Y102443D01*
X131456D01*
Y102351D01*
X131364D01*
Y102259D01*
X131272D01*
Y102167D01*
X131180D01*
Y102076D01*
Y101984D01*
X131088D01*
Y101892D01*
Y101800D01*
X130997D01*
Y101708D01*
Y101617D01*
Y101525D01*
Y101433D01*
Y101341D01*
Y101250D01*
Y101158D01*
Y101066D01*
X131088D01*
Y100974D01*
X131180D01*
Y100883D01*
X135861D01*
Y100974D01*
X135952D01*
Y101066D01*
X136044D01*
Y101158D01*
Y101250D01*
Y101341D01*
Y101433D01*
Y101525D01*
Y101617D01*
Y101708D01*
Y101800D01*
Y101892D01*
Y101984D01*
Y102076D01*
Y102167D01*
Y102259D01*
Y102351D01*
Y102443D01*
Y102534D01*
Y102626D01*
Y102718D01*
Y102810D01*
X138614D01*
Y102718D01*
Y102626D01*
Y102534D01*
Y102443D01*
Y102351D01*
Y102259D01*
Y102167D01*
Y102076D01*
Y101984D01*
Y101892D01*
Y101800D01*
Y101708D01*
Y101617D01*
Y101525D01*
Y101433D01*
Y101341D01*
Y101250D01*
Y101158D01*
Y101066D01*
Y100974D01*
Y100883D01*
Y100791D01*
X138522D01*
Y100699D01*
Y100607D01*
Y100515D01*
Y100424D01*
Y100332D01*
X138430D01*
Y100240D01*
Y100148D01*
Y100057D01*
X138339D01*
Y99965D01*
Y99873D01*
Y99781D01*
X138247D01*
Y99690D01*
X138155D01*
Y99598D01*
Y99506D01*
X138063D01*
Y99414D01*
X137971D01*
Y99322D01*
Y99231D01*
X137880D01*
Y99139D01*
X137788D01*
Y99047D01*
X137696D01*
Y98955D01*
X137513D01*
Y98864D01*
X137421D01*
Y98772D01*
X137237D01*
Y98680D01*
X137054D01*
Y98588D01*
X136870D01*
Y98497D01*
X136595D01*
Y98405D01*
X130446D01*
Y98497D01*
X130171D01*
Y98588D01*
X129987D01*
Y98680D01*
X129804D01*
Y98772D01*
X129620D01*
Y98864D01*
X129528D01*
Y98955D01*
X129437D01*
Y99047D01*
X129345D01*
Y99139D01*
X129253D01*
Y99231D01*
X129161D01*
Y99322D01*
X129069D01*
Y99414D01*
X128978D01*
Y99506D01*
Y99598D01*
X128886D01*
Y99690D01*
X128794D01*
Y99781D01*
Y99873D01*
X128702D01*
Y99965D01*
Y100057D01*
X128611D01*
Y100148D01*
Y100240D01*
Y100332D01*
Y100424D01*
X128519D01*
Y100515D01*
Y100607D01*
Y100699D01*
Y100791D01*
Y100883D01*
Y100974D01*
Y101066D01*
Y101158D01*
Y101250D01*
Y101341D01*
Y101433D01*
Y101525D01*
Y101617D01*
Y101708D01*
Y101800D01*
Y101892D01*
Y101984D01*
Y102076D01*
Y102167D01*
Y102259D01*
Y102351D01*
Y102443D01*
Y102534D01*
Y102626D01*
X128611D01*
Y102718D01*
Y102810D01*
Y102902D01*
Y102993D01*
X128702D01*
Y103085D01*
Y103177D01*
Y103269D01*
X128794D01*
Y103360D01*
Y103452D01*
X128886D01*
Y103544D01*
Y103636D01*
X128978D01*
Y103728D01*
X129069D01*
Y103819D01*
Y103911D01*
X129161D01*
Y104003D01*
X129253D01*
Y104095D01*
X129345D01*
Y104186D01*
X129437D01*
Y104278D01*
X129528D01*
Y104370D01*
X129712D01*
Y104462D01*
X129804D01*
Y104553D01*
X129895D01*
Y104645D01*
X130079D01*
Y104737D01*
X130262D01*
Y104829D01*
X130446D01*
Y104921D01*
X130630D01*
Y105012D01*
X130905D01*
Y105104D01*
X131088D01*
Y105196D01*
X131364D01*
Y105288D01*
X131731D01*
Y105379D01*
X132098D01*
Y105471D01*
X132557D01*
Y105563D01*
X133016D01*
Y105655D01*
X133566D01*
Y105747D01*
X134025D01*
Y105838D01*
X134484D01*
Y105930D01*
X134759D01*
Y106022D01*
X135035D01*
Y106114D01*
X135310D01*
Y106205D01*
X135402D01*
Y106297D01*
X135585D01*
Y106389D01*
X135677D01*
Y106481D01*
X135769D01*
Y106572D01*
X135861D01*
Y106664D01*
X135952D01*
Y106756D01*
Y106848D01*
Y106940D01*
X136044D01*
Y107031D01*
Y107123D01*
Y107215D01*
Y107307D01*
Y107398D01*
Y107490D01*
X135952D01*
Y107582D01*
X131180D01*
Y107490D01*
X131088D01*
Y107398D01*
Y107307D01*
X130997D01*
Y107215D01*
Y107123D01*
Y107031D01*
X131088D01*
Y106940D01*
X128519D01*
Y107031D01*
Y107123D01*
Y107215D01*
Y107307D01*
Y107398D01*
Y107490D01*
Y107582D01*
Y107674D01*
Y107766D01*
Y107857D01*
Y107949D01*
Y108041D01*
Y108133D01*
X128611D01*
Y108224D01*
Y108316D01*
Y108408D01*
X128702D01*
Y108500D01*
Y108592D01*
Y108683D01*
X128794D01*
Y108775D01*
X128886D01*
Y108867D01*
Y108959D01*
X128978D01*
Y109050D01*
X129069D01*
Y109142D01*
Y109234D01*
X129161D01*
Y109326D01*
X129253D01*
Y109417D01*
X129345D01*
Y109509D01*
X129437D01*
Y109601D01*
X129620D01*
Y109693D01*
X129712D01*
Y109785D01*
X129895D01*
Y109876D01*
X130079D01*
Y109968D01*
X130354D01*
Y110060D01*
X130721D01*
Y110152D01*
X136320D01*
Y110060D01*
D02*
G37*
G36*
X125399Y114006D02*
Y113914D01*
Y113823D01*
Y113731D01*
Y113639D01*
Y113547D01*
Y113455D01*
Y113364D01*
Y113272D01*
Y113180D01*
Y113089D01*
Y112997D01*
Y112905D01*
Y112813D01*
Y112721D01*
Y112630D01*
Y112538D01*
Y112446D01*
Y112354D01*
Y112262D01*
Y112171D01*
Y112079D01*
Y111987D01*
Y111895D01*
Y111804D01*
Y111712D01*
Y111620D01*
Y111528D01*
Y111436D01*
Y111345D01*
Y111253D01*
Y111161D01*
Y111069D01*
Y110978D01*
Y110886D01*
Y110794D01*
Y110702D01*
Y110611D01*
Y110519D01*
Y110427D01*
Y110335D01*
Y110243D01*
Y110152D01*
Y110060D01*
Y109968D01*
Y109876D01*
Y109785D01*
Y109693D01*
Y109601D01*
Y109509D01*
Y109417D01*
Y109326D01*
Y109234D01*
Y109142D01*
Y109050D01*
Y108959D01*
Y108867D01*
Y108775D01*
Y108683D01*
Y108592D01*
Y108500D01*
Y108408D01*
Y108316D01*
Y108224D01*
Y108133D01*
Y108041D01*
Y107949D01*
Y107857D01*
Y107766D01*
Y107674D01*
Y107582D01*
Y107490D01*
Y107398D01*
Y107307D01*
Y107215D01*
Y107123D01*
Y107031D01*
Y106940D01*
Y106848D01*
Y106756D01*
Y106664D01*
Y106572D01*
Y106481D01*
Y106389D01*
Y106297D01*
Y106205D01*
Y106114D01*
Y106022D01*
Y105930D01*
Y105838D01*
Y105747D01*
Y105655D01*
Y105563D01*
Y105471D01*
Y105379D01*
Y105288D01*
Y105196D01*
Y105104D01*
Y105012D01*
Y104921D01*
Y104829D01*
Y104737D01*
Y104645D01*
Y104553D01*
Y104462D01*
Y104370D01*
Y104278D01*
Y104186D01*
Y104095D01*
Y104003D01*
Y103911D01*
Y103819D01*
Y103728D01*
Y103636D01*
Y103544D01*
Y103452D01*
Y103360D01*
Y103269D01*
Y103177D01*
Y103085D01*
Y102993D01*
Y102902D01*
Y102810D01*
Y102718D01*
Y102626D01*
Y102534D01*
Y102443D01*
Y102351D01*
Y102259D01*
Y102167D01*
Y102076D01*
Y101984D01*
Y101892D01*
Y101800D01*
Y101708D01*
Y101617D01*
Y101525D01*
Y101433D01*
Y101341D01*
Y101250D01*
Y101158D01*
Y101066D01*
Y100974D01*
Y100883D01*
Y100791D01*
Y100699D01*
X125307D01*
Y100607D01*
Y100515D01*
Y100424D01*
X125215D01*
Y100332D01*
Y100240D01*
Y100148D01*
X125123D01*
Y100057D01*
Y99965D01*
X125031D01*
Y99873D01*
Y99781D01*
X124940D01*
Y99690D01*
X124848D01*
Y99598D01*
X124756D01*
Y99506D01*
Y99414D01*
X124664D01*
Y99322D01*
X124573D01*
Y99231D01*
X124481D01*
Y99139D01*
X124389D01*
Y99047D01*
X124297D01*
Y98955D01*
X124114D01*
Y98864D01*
X124022D01*
Y98772D01*
X123838D01*
Y98680D01*
X123655D01*
Y98588D01*
X123380D01*
Y98497D01*
X123104D01*
Y98405D01*
X120535D01*
Y98497D01*
Y98588D01*
Y98680D01*
Y98772D01*
Y98864D01*
Y98955D01*
Y99047D01*
Y99139D01*
Y99231D01*
Y99322D01*
Y99414D01*
Y99506D01*
Y99598D01*
Y99690D01*
Y99781D01*
Y99873D01*
Y99965D01*
Y100057D01*
Y100148D01*
Y100240D01*
Y100332D01*
Y100424D01*
Y100515D01*
Y100607D01*
Y100699D01*
Y100791D01*
Y100883D01*
X122370D01*
Y100974D01*
X122645D01*
Y101066D01*
X122737D01*
Y101158D01*
X122829D01*
Y101250D01*
Y101341D01*
Y101433D01*
Y101525D01*
Y101617D01*
Y101708D01*
Y101800D01*
Y101892D01*
Y101984D01*
Y102076D01*
Y102167D01*
Y102259D01*
Y102351D01*
Y102443D01*
Y102534D01*
Y102626D01*
Y102718D01*
Y102810D01*
Y102902D01*
Y102993D01*
Y103085D01*
Y103177D01*
Y103269D01*
Y103360D01*
Y103452D01*
Y103544D01*
Y103636D01*
Y103728D01*
Y103819D01*
Y103911D01*
Y104003D01*
Y104095D01*
Y104186D01*
Y104278D01*
Y104370D01*
Y104462D01*
Y104553D01*
Y104645D01*
Y104737D01*
Y104829D01*
Y104921D01*
Y105012D01*
Y105104D01*
Y105196D01*
Y105288D01*
Y105379D01*
Y105471D01*
Y105563D01*
Y105655D01*
Y105747D01*
Y105838D01*
Y105930D01*
Y106022D01*
Y106114D01*
Y106205D01*
Y106297D01*
Y106389D01*
Y106481D01*
Y106572D01*
Y106664D01*
Y106756D01*
Y106848D01*
Y106940D01*
Y107031D01*
Y107123D01*
Y107215D01*
Y107307D01*
Y107398D01*
Y107490D01*
Y107582D01*
Y107674D01*
Y107766D01*
Y107857D01*
Y107949D01*
Y108041D01*
Y108133D01*
Y108224D01*
Y108316D01*
Y108408D01*
Y108500D01*
Y108592D01*
Y108683D01*
Y108775D01*
Y108867D01*
Y108959D01*
Y109050D01*
Y109142D01*
Y109234D01*
Y109326D01*
Y109417D01*
Y109509D01*
Y109601D01*
Y109693D01*
Y109785D01*
Y109876D01*
Y109968D01*
Y110060D01*
Y110152D01*
Y110243D01*
Y110335D01*
Y110427D01*
Y110519D01*
Y110611D01*
Y110702D01*
Y110794D01*
Y110886D01*
Y110978D01*
Y111069D01*
Y111161D01*
Y111253D01*
Y111345D01*
Y111436D01*
Y111528D01*
Y111620D01*
Y111712D01*
Y111804D01*
Y111895D01*
Y111987D01*
Y112079D01*
Y112171D01*
Y112262D01*
Y112354D01*
Y112446D01*
Y112538D01*
Y112630D01*
Y112721D01*
Y112813D01*
Y112905D01*
Y112997D01*
Y113089D01*
Y113180D01*
Y113272D01*
Y113364D01*
Y113455D01*
Y113547D01*
Y113639D01*
Y113731D01*
Y113823D01*
Y113914D01*
Y114006D01*
Y114098D01*
X125399D01*
Y114006D01*
D02*
G37*
G36*
X121911Y95468D02*
Y95376D01*
Y95284D01*
Y95193D01*
Y95101D01*
Y95009D01*
Y94917D01*
Y94826D01*
Y94734D01*
Y94642D01*
Y94550D01*
Y94458D01*
Y94367D01*
Y94275D01*
Y94183D01*
Y94091D01*
Y94000D01*
Y93908D01*
Y93816D01*
Y93724D01*
Y93633D01*
Y93541D01*
Y93449D01*
Y93357D01*
Y93265D01*
Y93174D01*
Y93082D01*
Y92990D01*
Y92898D01*
Y92807D01*
Y92715D01*
Y92623D01*
Y92531D01*
Y92439D01*
Y92348D01*
Y92256D01*
Y92164D01*
Y92072D01*
Y91980D01*
Y91889D01*
Y91797D01*
Y91705D01*
Y91614D01*
Y91522D01*
Y91430D01*
Y91338D01*
Y91246D01*
Y91155D01*
Y91063D01*
Y90971D01*
Y90879D01*
Y90788D01*
Y90696D01*
Y90604D01*
Y90512D01*
Y90420D01*
X118424D01*
Y90512D01*
Y90604D01*
Y90696D01*
Y90788D01*
Y90879D01*
Y90971D01*
Y91063D01*
Y91155D01*
Y91246D01*
Y91338D01*
Y91430D01*
X120626D01*
Y91522D01*
Y91614D01*
Y91705D01*
Y91797D01*
Y91889D01*
Y91980D01*
Y92072D01*
Y92164D01*
Y92256D01*
Y92348D01*
Y92439D01*
Y92531D01*
Y92623D01*
Y92715D01*
Y92807D01*
Y92898D01*
Y92990D01*
Y93082D01*
Y93174D01*
Y93265D01*
Y93357D01*
Y93449D01*
Y93541D01*
Y93633D01*
Y93724D01*
Y93816D01*
Y93908D01*
Y94000D01*
Y94091D01*
Y94183D01*
Y94275D01*
Y94367D01*
Y94458D01*
Y94550D01*
Y94642D01*
Y94734D01*
Y94826D01*
Y94917D01*
Y95009D01*
Y95101D01*
Y95193D01*
Y95284D01*
Y95376D01*
Y95468D01*
Y95560D01*
X121911D01*
Y95468D01*
D02*
G37*
G36*
X116313D02*
Y95376D01*
X116405D01*
Y95284D01*
Y95193D01*
Y95101D01*
X116497D01*
Y95009D01*
Y94917D01*
Y94826D01*
Y94734D01*
X116588D01*
Y94642D01*
Y94550D01*
Y94458D01*
X116680D01*
Y94367D01*
Y94275D01*
Y94183D01*
X116772D01*
Y94091D01*
Y94000D01*
Y93908D01*
Y93816D01*
X116864D01*
Y93724D01*
Y93633D01*
Y93541D01*
X116955D01*
Y93449D01*
Y93357D01*
Y93265D01*
X117047D01*
Y93174D01*
Y93082D01*
Y92990D01*
X117139D01*
Y92898D01*
Y92807D01*
Y92715D01*
Y92623D01*
X117231D01*
Y92531D01*
Y92439D01*
Y92348D01*
X117322D01*
Y92256D01*
Y92164D01*
Y92072D01*
X117414D01*
Y91980D01*
Y91889D01*
Y91797D01*
Y91705D01*
X117506D01*
Y91614D01*
Y91522D01*
Y91430D01*
X117598D01*
Y91338D01*
Y91246D01*
Y91155D01*
X117690D01*
Y91063D01*
Y90971D01*
Y90879D01*
Y90788D01*
X117781D01*
Y90696D01*
Y90604D01*
Y90512D01*
X117873D01*
Y90420D01*
X116497D01*
Y90512D01*
Y90604D01*
Y90696D01*
Y90788D01*
Y90879D01*
X116405D01*
Y90971D01*
Y91063D01*
Y91155D01*
Y91246D01*
X116313D01*
Y91338D01*
Y91430D01*
Y91522D01*
X114753D01*
Y91430D01*
Y91338D01*
Y91246D01*
X114661D01*
Y91155D01*
Y91063D01*
Y90971D01*
Y90879D01*
Y90788D01*
X114569D01*
Y90696D01*
Y90604D01*
Y90512D01*
Y90420D01*
X113193D01*
Y90512D01*
Y90604D01*
X113284D01*
Y90696D01*
Y90788D01*
Y90879D01*
Y90971D01*
X113376D01*
Y91063D01*
Y91155D01*
Y91246D01*
X113468D01*
Y91338D01*
Y91430D01*
Y91522D01*
X113560D01*
Y91614D01*
Y91705D01*
Y91797D01*
Y91889D01*
X113652D01*
Y91980D01*
Y92072D01*
Y92164D01*
X113743D01*
Y92256D01*
Y92348D01*
Y92439D01*
X113835D01*
Y92531D01*
Y92623D01*
Y92715D01*
X113927D01*
Y92807D01*
Y92898D01*
Y92990D01*
Y93082D01*
X114019D01*
Y93174D01*
Y93265D01*
Y93357D01*
X114110D01*
Y93449D01*
Y93541D01*
Y93633D01*
X114202D01*
Y93724D01*
Y93816D01*
Y93908D01*
Y94000D01*
X114294D01*
Y94091D01*
Y94183D01*
Y94275D01*
X114386D01*
Y94367D01*
Y94458D01*
Y94550D01*
X114477D01*
Y94642D01*
Y94734D01*
Y94826D01*
Y94917D01*
X114569D01*
Y95009D01*
Y95101D01*
Y95193D01*
X114661D01*
Y95284D01*
Y95376D01*
Y95468D01*
Y95560D01*
X116313D01*
Y95468D01*
D02*
G37*
G36*
X112550D02*
Y95376D01*
Y95284D01*
Y95193D01*
Y95101D01*
Y95009D01*
Y94917D01*
Y94826D01*
Y94734D01*
Y94642D01*
Y94550D01*
Y94458D01*
Y94367D01*
Y94275D01*
Y94183D01*
Y94091D01*
Y94000D01*
Y93908D01*
Y93816D01*
Y93724D01*
Y93633D01*
Y93541D01*
Y93449D01*
Y93357D01*
Y93265D01*
Y93174D01*
Y93082D01*
Y92990D01*
Y92898D01*
Y92807D01*
Y92715D01*
Y92623D01*
Y92531D01*
Y92439D01*
Y92348D01*
Y92256D01*
Y92164D01*
Y92072D01*
Y91980D01*
Y91889D01*
Y91797D01*
Y91705D01*
Y91614D01*
Y91522D01*
Y91430D01*
Y91338D01*
Y91246D01*
Y91155D01*
Y91063D01*
Y90971D01*
Y90879D01*
Y90788D01*
Y90696D01*
Y90604D01*
Y90512D01*
Y90420D01*
X109797D01*
Y90512D01*
X109522D01*
Y90604D01*
X109338D01*
Y90696D01*
X109155D01*
Y90788D01*
X109063D01*
Y90879D01*
X108879D01*
Y90971D01*
Y91063D01*
X108788D01*
Y91155D01*
X108696D01*
Y91246D01*
Y91338D01*
X108604D01*
Y91430D01*
Y91522D01*
Y91614D01*
Y91705D01*
Y91797D01*
X108512D01*
Y91889D01*
Y91980D01*
X108604D01*
Y92072D01*
Y92164D01*
Y92256D01*
Y92348D01*
X108696D01*
Y92439D01*
Y92531D01*
X108788D01*
Y92623D01*
Y92715D01*
X108879D01*
Y92807D01*
X109063D01*
Y92898D01*
X109246D01*
Y92990D01*
X109613D01*
Y93082D01*
X109705D01*
Y93174D01*
X109613D01*
Y93265D01*
X109338D01*
Y93357D01*
X109246D01*
Y93449D01*
X109063D01*
Y93541D01*
Y93633D01*
X108971D01*
Y93724D01*
X108879D01*
Y93816D01*
Y93908D01*
Y94000D01*
X108788D01*
Y94091D01*
Y94183D01*
Y94275D01*
Y94367D01*
Y94458D01*
Y94550D01*
Y94642D01*
X108879D01*
Y94734D01*
Y94826D01*
X108971D01*
Y94917D01*
Y95009D01*
X109063D01*
Y95101D01*
X109155D01*
Y95193D01*
X109246D01*
Y95284D01*
X109430D01*
Y95376D01*
X109705D01*
Y95468D01*
X110348D01*
Y95560D01*
X112550D01*
Y95468D01*
D02*
G37*
%LPC*%
G36*
X112091Y103728D02*
X111357D01*
Y103636D01*
Y103544D01*
Y103452D01*
Y103360D01*
Y103269D01*
Y103177D01*
Y103085D01*
Y102993D01*
Y102902D01*
Y102810D01*
Y102718D01*
Y102626D01*
Y102534D01*
Y102443D01*
Y102351D01*
Y102259D01*
Y102167D01*
Y102076D01*
Y101984D01*
X111449D01*
Y101892D01*
X111908D01*
Y101800D01*
X112275D01*
Y101708D01*
X112734D01*
Y101617D01*
X113193D01*
Y101525D01*
X113652D01*
Y101433D01*
X114019D01*
Y101341D01*
X114477D01*
Y101250D01*
X114936D01*
Y101158D01*
X115395D01*
Y101066D01*
X115854D01*
Y100974D01*
X116221D01*
Y101066D01*
X116313D01*
Y101158D01*
Y101250D01*
Y101341D01*
Y101433D01*
Y101525D01*
Y101617D01*
Y101708D01*
Y101800D01*
Y101892D01*
Y101984D01*
Y102076D01*
Y102167D01*
Y102259D01*
Y102351D01*
Y102443D01*
Y102534D01*
X116221D01*
Y102626D01*
Y102718D01*
Y102810D01*
Y102902D01*
X116129D01*
Y102993D01*
Y103085D01*
X116038D01*
Y103177D01*
X115946D01*
Y103269D01*
X115762D01*
Y103360D01*
X114845D01*
Y103452D01*
X113927D01*
Y103544D01*
X113009D01*
Y103636D01*
X112091D01*
Y103728D01*
D02*
G37*
G36*
X148342Y107582D02*
X143570D01*
Y107490D01*
X143478D01*
Y107398D01*
Y107307D01*
Y107215D01*
Y107123D01*
Y107031D01*
Y106940D01*
Y106848D01*
Y106756D01*
Y106664D01*
Y106572D01*
Y106481D01*
Y106389D01*
Y106297D01*
Y106205D01*
Y106114D01*
Y106022D01*
Y105930D01*
Y105838D01*
Y105747D01*
Y105655D01*
Y105563D01*
Y105471D01*
Y105379D01*
X148434D01*
Y105471D01*
Y105563D01*
Y105655D01*
Y105747D01*
Y105838D01*
Y105930D01*
Y106022D01*
Y106114D01*
Y106205D01*
Y106297D01*
Y106389D01*
Y106481D01*
Y106572D01*
Y106664D01*
Y106756D01*
Y106848D01*
Y106940D01*
Y107031D01*
Y107123D01*
Y107215D01*
Y107307D01*
Y107398D01*
Y107490D01*
X148342D01*
Y107582D01*
D02*
G37*
G36*
X115671Y94550D02*
X115487D01*
Y94458D01*
Y94367D01*
X115395D01*
Y94275D01*
Y94183D01*
Y94091D01*
Y94000D01*
X115303D01*
Y93908D01*
Y93816D01*
Y93724D01*
Y93633D01*
Y93541D01*
X115212D01*
Y93449D01*
Y93357D01*
Y93265D01*
Y93174D01*
X115120D01*
Y93082D01*
Y92990D01*
Y92898D01*
Y92807D01*
X115028D01*
Y92715D01*
Y92623D01*
Y92531D01*
Y92439D01*
X116038D01*
Y92531D01*
Y92623D01*
Y92715D01*
Y92807D01*
X115946D01*
Y92898D01*
Y92990D01*
Y93082D01*
Y93174D01*
Y93265D01*
X115854D01*
Y93357D01*
Y93449D01*
Y93541D01*
Y93633D01*
X115762D01*
Y93724D01*
Y93816D01*
Y93908D01*
Y94000D01*
Y94091D01*
X115671D01*
Y94183D01*
Y94275D01*
Y94367D01*
Y94458D01*
Y94550D01*
D02*
G37*
G36*
X111265D02*
X110348D01*
Y94458D01*
X110164D01*
Y94367D01*
X110072D01*
Y94275D01*
Y94183D01*
Y94091D01*
Y94000D01*
Y93908D01*
Y93816D01*
Y93724D01*
X110164D01*
Y93633D01*
X110256D01*
Y93541D01*
X110439D01*
Y93449D01*
X111265D01*
Y93541D01*
Y93633D01*
Y93724D01*
Y93816D01*
Y93908D01*
Y94000D01*
Y94091D01*
Y94183D01*
Y94275D01*
Y94367D01*
Y94458D01*
Y94550D01*
D02*
G37*
G36*
Y92623D02*
X110348D01*
Y92531D01*
X110072D01*
Y92439D01*
X109980D01*
Y92348D01*
X109889D01*
Y92256D01*
X109797D01*
Y92164D01*
Y92072D01*
Y91980D01*
Y91889D01*
Y91797D01*
X109889D01*
Y91705D01*
Y91614D01*
X109980D01*
Y91522D01*
X110072D01*
Y91430D01*
X110348D01*
Y91338D01*
X111265D01*
Y91430D01*
Y91522D01*
Y91614D01*
Y91705D01*
Y91797D01*
Y91889D01*
Y91980D01*
Y92072D01*
Y92164D01*
Y92256D01*
Y92348D01*
Y92439D01*
Y92531D01*
Y92623D01*
D02*
G37*
%LPD*%
D11*
X205658Y108106D02*
Y108894D01*
X200342Y108106D02*
Y108894D01*
D15*
X201001Y99500D02*
X200001Y98500D01*
Y96501D01*
X201001Y95501D01*
X204999D01*
X205999Y96501D01*
Y98500D01*
X204999Y99500D01*
X201001D01*
X202000Y93502D02*
X205999Y89503D01*
X204000Y91503D01*
X202000Y89503D01*
X205999Y93502D01*
X200001Y87504D02*
Y83505D01*
X201001D01*
X204999Y87504D01*
X205999D01*
X200001Y81506D02*
Y77507D01*
X201001D01*
X204999Y81506D01*
X205999D01*
X192168Y64665D02*
X193001Y65498D01*
X194667D01*
X195500Y64665D01*
Y63832D01*
X194667Y62999D01*
X193001D01*
X192168Y62166D01*
Y61333D01*
X193001Y60500D01*
X194667D01*
X195500Y61333D01*
X187169Y65498D02*
X190502D01*
Y60500D01*
X187169D01*
X190502Y62999D02*
X188836D01*
X185503Y60500D02*
Y65498D01*
X182171Y60500D01*
Y65498D01*
X177173Y64665D02*
X178006Y65498D01*
X179672D01*
X180505Y64665D01*
Y63832D01*
X179672Y62999D01*
X178006D01*
X177173Y62166D01*
Y61333D01*
X178006Y60500D01*
X179672D01*
X180505Y61333D01*
X173007Y65498D02*
X174673D01*
X175506Y64665D01*
Y61333D01*
X174673Y60500D01*
X173007D01*
X172174Y61333D01*
Y64665D01*
X173007Y65498D01*
X170508Y60500D02*
Y65498D01*
X168009D01*
X167176Y64665D01*
Y62999D01*
X168009Y62166D01*
X170508D01*
X168842D02*
X167176Y60500D01*
X160511Y65498D02*
Y60500D01*
X158012D01*
X157179Y61333D01*
Y64665D01*
X158012Y65498D01*
X160511D01*
X152181D02*
X155513D01*
Y60500D01*
X152181D01*
X155513Y62999D02*
X153847D01*
X142184Y64665D02*
X143017Y65498D01*
X144683D01*
X145516Y64665D01*
Y61333D01*
X144683Y60500D01*
X143017D01*
X142184Y61333D01*
X140518Y60500D02*
Y63832D01*
X138852Y65498D01*
X137186Y63832D01*
Y60500D01*
Y62999D01*
X140518D01*
X135519Y65498D02*
Y60500D01*
X132187D01*
X130521Y65498D02*
X128855D01*
X129688D01*
Y60500D01*
X130521D01*
X128855D01*
X126356Y65498D02*
Y60500D01*
X123856D01*
X123023Y61333D01*
Y64665D01*
X123856Y65498D01*
X126356D01*
X121357Y60500D02*
Y63832D01*
X119691Y65498D01*
X118025Y63832D01*
Y60500D01*
Y62999D01*
X121357D01*
X116359Y65498D02*
Y60500D01*
X113860D01*
X113027Y61333D01*
Y64665D01*
X113860Y65498D01*
X116359D01*
X106362D02*
Y60500D01*
X103863D01*
X103030Y61333D01*
Y64665D01*
X103863Y65498D01*
X106362D01*
X98032D02*
X101364D01*
Y60500D01*
X98032D01*
X101364Y62999D02*
X99698D01*
X91367Y60500D02*
Y63832D01*
X89701Y65498D01*
X88035Y63832D01*
Y60500D01*
Y62999D01*
X91367D01*
X86369Y65498D02*
X84703D01*
X85536D01*
Y60500D01*
X86369D01*
X84703D01*
X82203D02*
Y65498D01*
X79704D01*
X78871Y64665D01*
Y62999D01*
X79704Y62166D01*
X82203D01*
X80537D02*
X78871Y60500D01*
X73873Y65498D02*
X77205D01*
Y60500D01*
X73873D01*
X77205Y62999D02*
X75539D01*
X205999Y141496D02*
X202000D01*
X200001Y139497D01*
X202000Y137498D01*
X205999D01*
X203000D01*
Y141496D01*
X200001Y135498D02*
X205999D01*
Y132499D01*
X204999Y131500D01*
X201001D01*
X200001Y132499D01*
Y135498D01*
Y129500D02*
X205999D01*
Y126501D01*
X204999Y125502D01*
X201001D01*
X200001Y126501D01*
Y129500D01*
X205999Y123502D02*
X200001D01*
Y120503D01*
X201001Y119503D01*
X203000D01*
X204000Y120503D01*
Y123502D01*
Y121503D02*
X205999Y119503D01*
M02*
